<?xml version="1.0" encoding="utf-8"?>
<!-- Generator: Adobe Illustrator 20.0.0, SVG Export Plug-In . SVG Version: 6.00 Build 0)  -->
<svg version="1.1" id="Layer_1" xmlns="http://www.w3.org/2000/svg" xmlns:xlink="http://www.w3.org/1999/xlink" x="0px" y="0px"
	 viewBox="0 0 61.8 61.2" style="enable-background:new 0 0 61.8 61.2;" xml:space="preserve">
<style type="text/css">
	.st0{fill:#ED7D31;enable-background:new    ;}
</style>
<path class="st0" d="M12.2,32.7H17L9.3,20.1L1.6,32.7h4.3c0.6,7.3,4.4,13.7,10,17.7l4.1-4.8C15.7,42.7,12.8,38.1,12.2,32.7z"/>
<path class="st0" d="M28.1,13v4.5l12.6-7.7L28.1,2.1v4.6c-7.3,0.6-13.6,4.3-17.7,9.9l5,3.9C18.3,16.3,22.8,13.5,28.1,13z"/>
<path class="st0" d="M32.2,48.5v-4.7l-12.6,7.7l12.6,7.7v-4.3c7.2-0.7,13.5-4.5,17.5-10.1l-5-3.9C41.9,44.9,37.4,47.8,32.2,48.5z"/>
<path class="st0" d="M54,28.6c-0.6-7.2-4.4-13.5-10-17.4l-3.7,5.1c4,2.8,6.8,7.3,7.4,12.4h-4.4L51,41.1l7.7-12.6H54V28.6z"/>
</svg>
