<?xml version="1.0" encoding="utf-8"?>
<!-- Generator: Adobe Illustrator 20.0.0, SVG Export Plug-In . SVG Version: 6.00 Build 0)  -->
<svg version="1.1" id="Layer_1" xmlns="http://www.w3.org/2000/svg" xmlns:xlink="http://www.w3.org/1999/xlink" x="0px" y="0px"
	 viewBox="0 0 393.8 73.8" style="enable-background:new 0 0 393.8 73.8;" xml:space="preserve">
<style type="text/css">
	.st0{fill:#708090;}
	.st1{fill:#F16739;}
</style>
<g>
	<path class="st0" d="M214.4,16.8h10.4c2.8,0,5,0.2,6.5,0.7c1.5,0.4,2.6,1.1,3.4,1.9c0.8,0.8,1.3,1.8,1.5,3c0.3,1.2,0.4,3,0.4,5.5
		v3.4c0,2.5-0.3,4.4-0.8,5.5c-0.5,1.2-1.5,2-2.9,2.7c-1.4,0.6-3.2,0.9-5.5,0.9h-2.8v15.9h-10.3V16.8H214.4z M224.7,23.6v10.1
		c0.3,0,0.5,0,0.8,0c0.9,0,1.6-0.2,2-0.7s0.5-1.4,0.5-2.9v-3.2c0-1.4-0.2-2.2-0.6-2.6C226.9,23.8,226,23.6,224.7,23.6z"/>
	<path class="st0" d="M332.2,16.8v39.5h-9l-5.3-18v18h-8.6V16.8h8.6l5.8,17.8V16.8H332.2z"/>
	<path class="st0" d="M357,16.8v7.9h-6.1v31.6h-10.3V24.7h-6.1v-7.9C334.5,16.8,357,16.8,357,16.8z"/>
	<path class="st0" d="M381.1,28.8h-9.5v-2.9c0-1.4-0.1-2.2-0.4-2.6c-0.2-0.4-0.7-0.6-1.2-0.6c-0.6,0-1.1,0.3-1.4,0.8
		s-0.5,1.3-0.5,2.3c0,1.3,0.2,2.3,0.5,3s1.3,1.5,2.9,2.4c4.6,2.7,7.5,4.9,8.6,6.7c1.2,1.7,1.8,4.5,1.8,8.4c0,2.8-0.3,4.9-1,6.2
		s-1.9,2.5-3.8,3.4s-4.1,1.4-6.6,1.4c-2.8,0-5.1-0.5-7-1.6c-1.9-1-3.2-2.4-3.8-4c-0.6-1.6-0.9-3.9-0.9-6.9v-2.6h9.5V47
		c0,1.5,0.1,2.4,0.4,2.9c0.3,0.4,0.7,0.6,1.4,0.6s1.2-0.3,1.5-0.8s0.5-1.3,0.5-2.4c0-2.3-0.3-3.8-1-4.6c-0.7-0.7-2.3-1.9-4.8-3.6
		c-2.6-1.7-4.2-2.9-5.1-3.7s-1.5-1.8-2.1-3.2c-0.5-1.4-0.8-3.1-0.8-5.2c0-3,0.4-5.2,1.2-6.6c0.8-1.4,2-2.5,3.7-3.3s3.8-1.2,6.2-1.2
		c2.7,0,4.9,0.4,6.8,1.3s3.1,1.9,3.7,3.3c0.6,1.3,0.9,3.5,0.9,6.7v1.6H381.1z"/>
	<path class="st1" d="M246.7,40.5h4.8l-7.7-12.6l-7.7,12.6h4.3c0.6,7.3,4.4,13.7,10,17.7l4.1-4.8C250.2,50.5,247.3,45.8,246.7,40.5z
		"/>
	<path class="st1" d="M262.6,20.7v4.5l12.6-7.7l-12.6-7.7v4.6c-7.3,0.6-13.6,4.3-17.7,9.9l5,3.9C252.8,24.1,257.3,21.3,262.6,20.7z"
		/>
	<path class="st1" d="M266.7,56.2v-4.7l-12.6,7.7l12.6,7.7v-4.3c7.2-0.7,13.5-4.5,17.5-10.1l-5-3.9
		C276.4,52.7,271.9,55.6,266.7,56.2z"/>
	<path class="st1" d="M288.5,36.3c-0.6-7.2-4.4-13.5-10-17.4l-3.7,5.1c4,2.8,6.8,7.3,7.4,12.4h-4.4l7.7,12.6l7.7-12.6h-4.7V36.3z"/>
	<g>
		<path class="st1" d="M35.9,19.7c-0.9-1-2.2-1.8-4-2.2c-1.8-0.5-5.1-0.7-10.1-0.7h-7.7v39.5h13c2.5,0,4.3-0.1,5.5-0.4
			c1.2-0.3,2.2-0.7,3.1-1.4c0.8-0.7,1.4-1.6,1.7-2.8s0.5-3.6,0.5-7.1V30.7c0-3.7-0.1-6.3-0.3-7.5C37.4,21.9,36.8,20.8,35.9,19.7z
			 M27.7,43.8c0,2.6-0.2,4.3-0.5,4.8c-0.3,0.6-1.3,0.9-2.7,0.9v-26c1.1,0,1.9,0.1,2.3,0.4c0.4,0.2,0.7,0.6,0.8,1.1
			c0.1,0.5,0.2,1.7,0.2,3.4L27.7,43.8L27.7,43.8z"/>
		<polygon class="st1" points="52.1,39.7 58.5,39.7 58.5,32.2 52.1,32.2 52.1,24.7 58.9,24.7 58.9,16.8 41.8,16.8 41.8,56.3 
			59.6,56.3 59.6,48.4 52.1,48.4 		"/>
		<path class="st1" d="M81.7,17.7c-2-1.2-4.5-1.8-7.5-1.8c-2.2,0-4.2,0.4-5.9,1.1c-1.7,0.8-3.1,1.8-4,3.1c-1,1.3-1.6,2.7-1.7,4.1
			c-0.2,1.4-0.3,3.6-0.3,6.4v11.5c0,3.9,0.3,6.8,1,8.7s1.9,3.4,3.9,4.5s4.4,1.6,7.4,1.6c2.9,0,5.3-0.6,7.3-1.9
			c2-1.3,3.3-2.8,3.8-4.5c0.6-1.7,0.9-4.6,0.9-8.7v-1.5H76.3v5c0,2.2-0.1,3.5-0.4,4.1c-0.2,0.6-0.7,0.9-1.5,0.9s-1.3-0.3-1.5-0.9
			c-0.2-0.6-0.3-1.8-0.3-3.8V27.5c0-2,0.1-3.3,0.3-3.9c0.2-0.6,0.8-0.9,1.6-0.9c0.7,0,1.2,0.2,1.5,0.7c0.2,0.5,0.3,1.7,0.3,3.7V34
			h10.3v-3.8c0-3.7-0.3-6.4-0.9-8.2C85,20.4,83.7,18.9,81.7,17.7z"/>
		<rect x="90.2" y="16.5" class="st1" width="10.3" height="39.9"/>
		<path class="st1" d="M116.9,31.1c-1.6-0.9-2.6-1.7-2.9-2.4c-0.4-0.7-0.5-1.7-0.5-3c0-1,0.2-1.8,0.5-2.3s0.8-0.8,1.4-0.8
			s1,0.2,1.2,0.6s0.4,1.2,0.4,2.6v2.9h9.5v-1.6c0-3.1-0.3-5.4-0.9-6.7c-0.6-1.3-1.9-2.4-3.7-3.3c-1.9-0.9-4.2-1.3-6.8-1.3
			c-2.4,0-4.5,0.4-6.2,1.2s-3,1.9-3.7,3.3c-0.8,1.4-1.2,3.6-1.2,6.6c0,2.1,0.3,3.8,0.8,5.2s1.2,2.4,2.1,3.2s2.5,2,5.1,3.7
			s4.2,2.9,4.8,3.6c0.6,0.7,1,2.2,1,4.6c0,1.1-0.2,1.9-0.5,2.4s-0.8,0.8-1.5,0.8s-1.2-0.2-1.4-0.6s-0.4-1.4-0.4-2.9v-4.8h-9.5v2.6
			c0,3,0.3,5.2,0.9,6.9c0.6,1.6,1.9,2.9,3.8,4c1.9,1,4.3,1.6,7,1.6c2.5,0,4.7-0.5,6.6-1.4s3.2-2,3.8-3.4s1-3.4,1-6.2
			c0-3.9-0.6-6.7-1.8-8.4C124.3,36.1,121.4,33.8,116.9,31.1z"/>
		<rect x="130.5" y="16.5" class="st1" width="10.3" height="39.9"/>
		<path class="st1" d="M166.3,20.1c-1-1.4-2.4-2.4-4.1-3.1c-1.7-0.7-3.6-1-5.7-1c-2.2,0-4.2,0.4-5.9,1.1s-3,1.8-4,3.1
			c-1,1.4-1.6,2.9-1.8,4.5c-0.2,1.7-0.3,4.5-0.3,8.4v6.8c0,4.1,0.1,6.9,0.3,8.5s0.8,3.1,1.8,4.5s2.4,2.4,4.1,3.1s3.6,1,5.7,1
			c2.2,0,4.2-0.4,5.9-1.1c1.7-0.7,3-1.8,4-3.1c1-1.4,1.6-2.9,1.8-4.5c0.2-1.7,0.3-4.5,0.3-8.4v-6.8c0-4.1-0.1-6.9-0.3-8.5
			C167.9,23,167.3,21.5,166.3,20.1z M158.1,45.1c0,2.3-0.1,3.8-0.3,4.4s-0.6,0.9-1.3,0.9s-1.1-0.3-1.3-0.8s-0.3-2-0.3-4.2V27
			c0-2,0.1-3.3,0.4-3.7c0.3-0.4,0.7-0.6,1.2-0.6c0.6,0,1.1,0.3,1.3,0.8s0.3,1.7,0.3,3.5L158.1,45.1L158.1,45.1z"/>
		<polygon class="st1" points="186.6,16.8 186.6,34.6 180.8,16.8 172.2,16.8 172.2,56.3 180.8,56.3 180.8,38.4 186.2,56.3 
			195.2,56.3 195.2,16.8 		"/>
	</g>
	<rect x="294.8" y="30.2" class="st0" width="10.3" height="26.2"/>
	<rect x="294.8" y="16.8" class="st0" width="10.3" height="10.9"/>
</g>
</svg>
